<svg width="228.6mm" height="76.2mm" viewBox="0 0 228.6 76.2" xmlns="http://www.w3.org/2000/svg"><g id="svgGroup" stroke-linecap="round" fill-rule="evenodd" font-size="9pt" stroke="#000" stroke-width="0.25mm" fill="none" style="stroke:#000;stroke-width:0.25mm;fill:none"><path d="M 0 76.2 L 228.6 76.2 L 228.6 0 L 0 0 L 0 76.2 Z M 22.075 2.525 L 35.075 2.525 A 0.5 0.5 0 0 1 35.575 3.025 L 35.575 16.025 A 0.5 0.5 0 0 1 35.075 16.525 L 22.075 16.525 A 0.5 0.5 0 0 1 21.575 16.025 L 21.575 3.025 A 0.5 0.5 0 0 1 22.075 2.525 Z M 5.406 21.575 L 18.406 21.575 A 0.5 0.5 0 0 1 18.906 22.075 L 18.906 35.075 A 0.5 0.5 0 0 1 18.406 35.575 L 5.406 35.575 A 0.5 0.5 0 0 1 4.906 35.075 L 4.906 22.075 A 0.5 0.5 0 0 1 5.406 21.575 Z M 26.838 21.575 L 39.838 21.575 A 0.5 0.5 0 0 1 40.338 22.075 L 40.338 35.075 A 0.5 0.5 0 0 1 39.838 35.575 L 26.838 35.575 A 0.5 0.5 0 0 1 26.338 35.075 L 26.338 22.075 A 0.5 0.5 0 0 1 26.838 21.575 Z M 45.888 21.575 L 58.888 21.575 A 0.5 0.5 0 0 1 59.388 22.075 L 59.388 35.075 A 0.5 0.5 0 0 1 58.888 35.575 L 45.888 35.575 A 0.5 0.5 0 0 1 45.388 35.075 L 45.388 22.075 A 0.5 0.5 0 0 1 45.888 21.575 Z M 64.938 21.575 L 77.938 21.575 A 0.5 0.5 0 0 1 78.438 22.075 L 78.438 35.075 A 0.5 0.5 0 0 1 77.938 35.575 L 64.938 35.575 A 0.5 0.5 0 0 1 64.438 35.075 L 64.438 22.075 A 0.5 0.5 0 0 1 64.938 21.575 Z M 83.988 21.575 L 96.988 21.575 A 0.5 0.5 0 0 1 97.488 22.075 L 97.488 35.075 A 0.5 0.5 0 0 1 96.988 35.575 L 83.988 35.575 A 0.5 0.5 0 0 1 83.488 35.075 L 83.488 22.075 A 0.5 0.5 0 0 1 83.988 21.575 Z M 103.038 21.575 L 116.038 21.575 A 0.5 0.5 0 0 1 116.538 22.075 L 116.538 35.075 A 0.5 0.5 0 0 1 116.038 35.575 L 103.038 35.575 A 0.5 0.5 0 0 1 102.538 35.075 L 102.538 22.075 A 0.5 0.5 0 0 1 103.038 21.575 Z M 122.088 21.575 L 135.088 21.575 A 0.5 0.5 0 0 1 135.588 22.075 L 135.588 35.075 A 0.5 0.5 0 0 1 135.088 35.575 L 122.088 35.575 A 0.5 0.5 0 0 1 121.588 35.075 L 121.588 22.075 A 0.5 0.5 0 0 1 122.088 21.575 Z M 141.138 21.575 L 154.138 21.575 A 0.5 0.5 0 0 1 154.638 22.075 L 154.638 35.075 A 0.5 0.5 0 0 1 154.138 35.575 L 141.138 35.575 A 0.5 0.5 0 0 1 140.638 35.075 L 140.638 22.075 A 0.5 0.5 0 0 1 141.138 21.575 Z M 160.188 21.575 L 173.188 21.575 A 0.5 0.5 0 0 1 173.688 22.075 L 173.688 35.075 A 0.5 0.5 0 0 1 173.188 35.575 L 160.188 35.575 A 0.5 0.5 0 0 1 159.688 35.075 L 159.688 22.075 A 0.5 0.5 0 0 1 160.188 21.575 Z M 179.238 21.575 L 192.238 21.575 A 0.5 0.5 0 0 1 192.738 22.075 L 192.738 35.075 A 0.5 0.5 0 0 1 192.238 35.575 L 179.238 35.575 A 0.5 0.5 0 0 1 178.738 35.075 L 178.738 22.075 A 0.5 0.5 0 0 1 179.238 21.575 Z M 205.431 21.575 L 218.431 21.575 A 0.5 0.5 0 0 1 218.931 22.075 L 218.931 35.075 A 0.5 0.5 0 0 1 218.431 35.575 L 205.431 35.575 A 0.5 0.5 0 0 1 204.931 35.075 L 204.931 22.075 A 0.5 0.5 0 0 1 205.431 21.575 Z M 10.169 40.625 L 23.169 40.625 A 0.5 0.5 0 0 1 23.669 41.125 L 23.669 54.125 A 0.5 0.5 0 0 1 23.169 54.625 L 10.169 54.625 A 0.5 0.5 0 0 1 9.669 54.125 L 9.669 41.125 A 0.5 0.5 0 0 1 10.169 40.625 Z M 36.363 40.625 L 49.363 40.625 A 0.5 0.5 0 0 1 49.863 41.125 L 49.863 54.125 A 0.5 0.5 0 0 1 49.363 54.625 L 36.363 54.625 A 0.5 0.5 0 0 1 35.863 54.125 L 35.863 41.125 A 0.5 0.5 0 0 1 36.363 40.625 Z M 74.463 40.625 L 87.463 40.625 A 0.5 0.5 0 0 1 87.963 41.125 L 87.963 54.125 A 0.5 0.5 0 0 1 87.463 54.625 L 74.463 54.625 A 0.5 0.5 0 0 1 73.963 54.125 L 73.963 41.125 A 0.5 0.5 0 0 1 74.463 40.625 Z M 93.513 40.625 L 106.513 40.625 A 0.5 0.5 0 0 1 107.013 41.125 L 107.013 54.125 A 0.5 0.5 0 0 1 106.513 54.625 L 93.513 54.625 A 0.5 0.5 0 0 1 93.013 54.125 L 93.013 41.125 A 0.5 0.5 0 0 1 93.513 40.625 Z M 112.563 40.625 L 125.563 40.625 A 0.5 0.5 0 0 1 126.063 41.125 L 126.063 54.125 A 0.5 0.5 0 0 1 125.563 54.625 L 112.563 54.625 A 0.5 0.5 0 0 1 112.063 54.125 L 112.063 41.125 A 0.5 0.5 0 0 1 112.563 40.625 Z M 131.613 40.625 L 144.613 40.625 A 0.5 0.5 0 0 1 145.113 41.125 L 145.113 54.125 A 0.5 0.5 0 0 1 144.613 54.625 L 131.613 54.625 A 0.5 0.5 0 0 1 131.113 54.125 L 131.113 41.125 A 0.5 0.5 0 0 1 131.613 40.625 Z M 150.663 40.625 L 163.663 40.625 A 0.5 0.5 0 0 1 164.163 41.125 L 164.163 54.125 A 0.5 0.5 0 0 1 163.663 54.625 L 150.663 54.625 A 0.5 0.5 0 0 1 150.163 54.125 L 150.163 41.125 A 0.5 0.5 0 0 1 150.663 40.625 Z M 169.713 40.625 L 182.713 40.625 A 0.5 0.5 0 0 1 183.213 41.125 L 183.213 54.125 A 0.5 0.5 0 0 1 182.713 54.625 L 169.713 54.625 A 0.5 0.5 0 0 1 169.213 54.125 L 169.213 41.125 A 0.5 0.5 0 0 1 169.713 40.625 Z M 188.763 40.625 L 201.763 40.625 A 0.5 0.5 0 0 1 202.263 41.125 L 202.263 54.125 A 0.5 0.5 0 0 1 201.763 54.625 L 188.763 54.625 A 0.5 0.5 0 0 1 188.263 54.125 L 188.263 41.125 A 0.5 0.5 0 0 1 188.763 40.625 Z M 210.194 40.625 L 223.194 40.625 A 0.5 0.5 0 0 1 223.694 41.125 L 223.694 54.125 A 0.5 0.5 0 0 1 223.194 54.625 L 210.194 54.625 A 0.5 0.5 0 0 1 209.694 54.125 L 209.694 41.125 A 0.5 0.5 0 0 1 210.194 40.625 Z M 7.788 59.675 L 20.788 59.675 A 0.5 0.5 0 0 1 21.288 60.175 L 21.288 73.175 A 0.5 0.5 0 0 1 20.788 73.675 L 7.788 73.675 A 0.5 0.5 0 0 1 7.288 73.175 L 7.288 60.175 A 0.5 0.5 0 0 1 7.788 59.675 Z M 33.981 59.675 L 46.981 59.675 A 0.5 0.5 0 0 1 47.481 60.175 L 47.481 73.175 A 0.5 0.5 0 0 1 46.981 73.675 L 33.981 73.675 A 0.5 0.5 0 0 1 33.481 73.175 L 33.481 60.175 A 0.5 0.5 0 0 1 33.981 59.675 Z M 60.175 59.675 L 73.175 59.675 A 0.5 0.5 0 0 1 73.675 60.175 L 73.675 73.175 A 0.5 0.5 0 0 1 73.175 73.675 L 60.175 73.675 A 0.5 0.5 0 0 1 59.675 73.175 L 59.675 60.175 A 0.5 0.5 0 0 1 60.175 59.675 Z M 91.131 59.675 L 104.131 59.675 A 0.5 0.5 0 0 1 104.631 60.175 L 104.631 73.175 A 0.5 0.5 0 0 1 104.131 73.675 L 91.131 73.675 A 0.5 0.5 0 0 1 90.631 73.175 L 90.631 60.175 A 0.5 0.5 0 0 1 91.131 59.675 Z M 124.469 59.675 L 137.469 59.675 A 0.5 0.5 0 0 1 137.969 60.175 L 137.969 73.175 A 0.5 0.5 0 0 1 137.469 73.675 L 124.469 73.675 A 0.5 0.5 0 0 1 123.969 73.175 L 123.969 60.175 A 0.5 0.5 0 0 1 124.469 59.675 Z M 155.425 59.675 L 168.425 59.675 A 0.5 0.5 0 0 1 168.925 60.175 L 168.925 73.175 A 0.5 0.5 0 0 1 168.425 73.675 L 155.425 73.675 A 0.5 0.5 0 0 1 154.925 73.175 L 154.925 60.175 A 0.5 0.5 0 0 1 155.425 59.675 Z M 181.619 59.675 L 194.619 59.675 A 0.5 0.5 0 0 1 195.119 60.175 L 195.119 73.175 A 0.5 0.5 0 0 1 194.619 73.675 L 181.619 73.675 A 0.5 0.5 0 0 1 181.119 73.175 L 181.119 60.175 A 0.5 0.5 0 0 1 181.619 59.675 Z M 207.813 59.675 L 220.813 59.675 A 0.5 0.5 0 0 1 221.313 60.175 L 221.313 73.175 A 0.5 0.5 0 0 1 220.813 73.675 L 207.813 73.675 A 0.5 0.5 0 0 1 207.313 73.175 L 207.313 60.175 A 0.5 0.5 0 0 1 207.813 59.675 Z M 3.025 2.525 L 16.025 2.525 A 0.5 0.5 0 0 1 16.525 3.025 L 16.525 16.025 A 0.5 0.5 0 0 1 16.025 16.525 L 3.025 16.525 A 0.5 0.5 0 0 1 2.525 16.025 L 2.525 3.025 A 0.5 0.5 0 0 1 3.025 2.525 Z M 41.125 2.525 L 54.125 2.525 A 0.5 0.5 0 0 1 54.625 3.025 L 54.625 16.025 A 0.5 0.5 0 0 1 54.125 16.525 L 41.125 16.525 A 0.5 0.5 0 0 1 40.625 16.025 L 40.625 3.025 A 0.5 0.5 0 0 1 41.125 2.525 Z M 60.175 2.525 L 73.175 2.525 A 0.5 0.5 0 0 1 73.675 3.025 L 73.675 16.025 A 0.5 0.5 0 0 1 73.175 16.525 L 60.175 16.525 A 0.5 0.5 0 0 1 59.675 16.025 L 59.675 3.025 A 0.5 0.5 0 0 1 60.175 2.525 Z M 79.225 2.525 L 92.225 2.525 A 0.5 0.5 0 0 1 92.725 3.025 L 92.725 16.025 A 0.5 0.5 0 0 1 92.225 16.525 L 79.225 16.525 A 0.5 0.5 0 0 1 78.725 16.025 L 78.725 3.025 A 0.5 0.5 0 0 1 79.225 2.525 Z M 98.275 2.525 L 111.275 2.525 A 0.5 0.5 0 0 1 111.775 3.025 L 111.775 16.025 A 0.5 0.5 0 0 1 111.275 16.525 L 98.275 16.525 A 0.5 0.5 0 0 1 97.775 16.025 L 97.775 3.025 A 0.5 0.5 0 0 1 98.275 2.525 Z M 136.375 2.525 L 149.375 2.525 A 0.5 0.5 0 0 1 149.875 3.025 L 149.875 16.025 A 0.5 0.5 0 0 1 149.375 16.525 L 136.375 16.525 A 0.5 0.5 0 0 1 135.875 16.025 L 135.875 3.025 A 0.5 0.5 0 0 1 136.375 2.525 Z M 155.425 2.525 L 168.425 2.525 A 0.5 0.5 0 0 1 168.925 3.025 L 168.925 16.025 A 0.5 0.5 0 0 1 168.425 16.525 L 155.425 16.525 A 0.5 0.5 0 0 1 154.925 16.025 L 154.925 3.025 A 0.5 0.5 0 0 1 155.425 2.525 Z M 174.475 2.525 L 187.475 2.525 A 0.5 0.5 0 0 1 187.975 3.025 L 187.975 16.025 A 0.5 0.5 0 0 1 187.475 16.525 L 174.475 16.525 A 0.5 0.5 0 0 1 173.975 16.025 L 173.975 3.025 A 0.5 0.5 0 0 1 174.475 2.525 Z M 193.525 2.525 L 206.525 2.525 A 0.5 0.5 0 0 1 207.025 3.025 L 207.025 16.025 A 0.5 0.5 0 0 1 206.525 16.525 L 193.525 16.525 A 0.5 0.5 0 0 1 193.025 16.025 L 193.025 3.025 A 0.5 0.5 0 0 1 193.525 2.525 Z M 212.575 2.525 L 225.575 2.525 A 0.5 0.5 0 0 1 226.075 3.025 L 226.075 16.025 A 0.5 0.5 0 0 1 225.575 16.525 L 212.575 16.525 A 0.5 0.5 0 0 1 212.075 16.025 L 212.075 3.025 A 0.5 0.5 0 0 1 212.575 2.525 Z M 55.413 40.625 L 68.413 40.625 A 0.5 0.5 0 0 1 68.913 41.125 L 68.913 54.125 A 0.5 0.5 0 0 1 68.413 54.625 L 55.413 54.625 A 0.5 0.5 0 0 1 54.913 54.125 L 54.913 41.125 A 0.5 0.5 0 0 1 55.413 40.625 Z M 117.325 2.525 L 130.325 2.525 A 0.5 0.5 0 0 1 130.825 3.025 L 130.825 16.025 A 0.5 0.5 0 0 1 130.325 16.525 L 117.325 16.525 A 0.5 0.5 0 0 1 116.825 16.025 L 116.825 3.025 A 0.5 0.5 0 0 1 117.325 2.525 Z" vector-effect="non-scaling-stroke"/></g></svg>